<svg xmlns="http://www.w3.org/2000/svg" xmlns:xlink="http://www.w3.org/1999/xlink" xml:space="preserve" version="1.1" style="shape-rendering:geometricPrecision;text-rendering:geometricPrecision;image-rendering:optimizeQuality;" viewBox="0 -200 829 829" x="0px" y="0px" fill-rule="evenodd" clip-rule="evenodd">

<defs>

  <style type="text/css">
   
    .fil0 {fill: #5A1480}
   
  </style>
  
</defs>

  <g>
   
  <path class="fil0" d="M458 128l0 134c0,51 -87,51 -87,0l0 -134c0,-50 87,-50 87,0z"/>
  <path class="fil0" d="M456 292l-26 517 -31 0 -26 -517c10,36 72,36 83,0z"/>
  <path class="fil0" d="M414 4c26,0 46,20 46,45 0,14 -6,27 -16,35 -14,-11 -45,-11 -59,0 -10,-8 -16,-21 -16,-35 0,-25 20,-45 45,-45z"/>
  <path class="fil0" d="M34 179c-22,0 -24,39 -2,45l202 40 52 -2 75 -48 2 -39c-110,0 -219,4 -329,4z"/>
  <path class="fil0" d="M364 129l-326 -125c-32,-15 -52,16 -27,37 47,44 126,95 189,128l163 0 1 -40z"/>
  <path class="fil0" d="M794 179c22,0 25,39 3,45l-202 40 -52 -2 -76 -48 -1 -39c110,0 218,4 328,4z"/>
  <path class="fil0" d="M464 129l327 -125c31,-15 51,16 26,37 -46,44 -125,95 -188,128l-163 0 -2 -40z"/>
  </g>
  
</svg>